<?xml version="1.0" standalone="no"?>
<!DOCTYPE svg PUBLIC "-//W3C//DTD SVG 20010904//EN"
 "http://www.w3.org/TR/2001/REC-SVG-20010904/DTD/svg10.dtd">
<svg version="1.0" xmlns="http://www.w3.org/2000/svg"
 width="1024.000000pt" height="1024.000000pt" viewBox="0 0 1024.000000 1024.000000"
 preserveAspectRatio="xMidYMid meet">

<g transform="translate(0.000000,1024.000000) scale(0.100000,-0.100000)"
fill="#000000" stroke="none">
<path d="M4994 8710 c-194 -20 -370 -89 -530 -208 -94 -70 -124 -104 -124
-144 0 -41 40 -78 85 -78 28 0 51 13 117 65 101 79 209 137 309 164 294 80
597 24 836 -156 40 -30 75 -59 79 -64 3 -5 23 -9 45 -9 50 0 89 35 89 79 0 70
-231 231 -424 297 -140 48 -332 69 -482 54z"/>
<path d="M5021 8359 c-147 -19 -299 -87 -382 -170 -32 -32 -39 -46 -39 -78 0
-31 6 -44 26 -60 36 -29 64 -26 110 9 138 107 199 131 354 137 88 4 130 1 180
-12 76 -19 160 -62 210 -106 62 -54 91 -57 138 -16 35 32 29 75 -15 121 -87
90 -239 159 -390 176 -98 11 -101 11 -192 -1z"/>
<path d="M5005 8007 c-98 -33 -155 -76 -155 -118 0 -41 9 -58 41 -74 31 -16
43 -14 112 22 26 13 71 27 101 30 46 5 61 1 126 -31 41 -20 82 -36 92 -36 30
0 68 45 68 80 0 49 -14 64 -92 100 -63 29 -85 34 -163 37 -55 2 -105 -2 -130
-10z"/>
<path d="M4920 7589 c-91 -39 -329 -138 -530 -220 -201 -83 -375 -157 -387
-165 -29 -18 -31 -73 -5 -97 16 -15 237 -100 747 -287 94 -34 210 -78 259 -96
48 -19 98 -34 111 -34 13 0 88 24 167 54 79 30 251 95 383 144 194 73 410 156
493 189 9 4 12 -43 12 -218 l0 -223 -31 -32 c-39 -41 -50 -105 -24 -153 17
-34 81 -70 124 -71 65 0 130 86 115 154 -9 41 -31 74 -55 81 -18 6 -19 19 -19
280 0 317 7 296 -110 343 -143 57 -396 161 -712 291 -175 72 -330 131 -345
130 -15 0 -102 -32 -193 -70z"/>
<path d="M3091 7100 c-73 -34 -118 -76 -152 -146 l-32 -65 1 -1195 c1 -769 5
-1208 12 -1233 13 -49 69 -126 112 -156 93 -63 52 -60 746 -63 488 -2 632 -5
632 -15 -1 -7 -18 -77 -39 -157 l-38 -145 -187 -5 -188 -5 -24 -28 c-35 -41
-33 -99 5 -138 l30 -29 1156 2 1157 3 19 24 c13 16 19 39 19 71 0 42 -4 52
-31 74 -30 26 -32 26 -210 26 -98 0 -179 3 -179 6 0 6 -67 267 -76 296 -5 16
35 17 623 20 l628 3 66 31 c78 37 127 83 160 150 l24 49 0 1220 0 1220 -23 45
c-32 60 -73 102 -130 131 -46 24 -52 24 -362 27 -173 2 -325 0 -337 -3 -49
-12 -70 -111 -33 -158 l20 -26 298 -3 c218 -2 303 -6 319 -16 55 -31 53 26 53
-1224 0 -902 -3 -1158 -13 -1178 -7 -13 -28 -35 -46 -47 l-34 -23 -1914 0
c-2106 0 -1962 -4 -2003 62 -20 33 -20 47 -20 1186 0 1266 -4 1194 60 1227 24
13 91 15 425 15 217 0 395 3 395 8 -1 18 -91 116 -135 148 l-49 34 -330 0
c-308 0 -334 -2 -375 -20z m2556 -3020 c23 -85 42 -156 43 -157 0 -2 -254 -3
-565 -3 -459 0 -565 2 -565 13 0 16 70 288 77 300 2 4 221 6 486 5 l481 -3 43
-155z"/>
<path d="M4340 6616 c0 -173 3 -216 14 -225 8 -7 90 -23 183 -36 181 -26 344
-73 488 -139 43 -20 88 -36 101 -36 12 0 60 16 106 36 172 74 320 116 507 143
73 11 139 25 147 31 11 10 14 52 14 226 0 118 -3 214 -6 214 -10 0 -200 -68
-489 -174 -143 -53 -270 -96 -282 -96 -12 0 -46 9 -75 21 -126 50 -682 249
-694 249 -11 0 -14 -39 -14 -214z"/>
<path d="M6641 6342 c-19 -9 -48 -34 -65 -55 -29 -37 -31 -44 -31 -127 l0 -89
-221 -223 -222 -223 -4 -181 c-4 -197 -9 -215 -65 -251 -24 -16 -57 -18 -328
-18 l-300 0 -3 88 -3 87 136 0 c168 0 211 10 260 60 45 46 54 84 55 217 l0
101 33 21 c72 44 98 151 57 231 -65 127 -256 126 -321 -3 -43 -84 -9 -201 72
-242 l29 -16 0 -99 c0 -95 -1 -99 -27 -120 -24 -19 -37 -20 -157 -18 l-131 3
-5 195 -5 194 -27 15 c-20 12 -34 13 -55 5 l-28 -9 -3 -534 -2 -533 -43 7
c-23 4 -52 11 -64 16 l-23 9 0 533 c0 411 -3 537 -12 550 -28 36 -269 97 -387
97 -120 0 -259 -50 -336 -121 l-42 -38 -54 50 c-157 145 -321 207 -580 216
-145 6 -146 5 -163 -18 -14 -21 -16 -77 -16 -556 0 -298 4 -542 9 -556 14 -36
52 -45 201 -50 112 -4 147 -9 204 -30 37 -14 73 -30 78 -35 6 -6 -57 -11 -169
-15 -112 -3 -220 -13 -292 -26 -63 -11 -117 -18 -120 -15 -3 3 -7 236 -9 517
-3 503 -3 512 -24 530 -27 22 -80 22 -101 -1 -15 -17 -17 -70 -17 -561 0 -603
-1 -597 64 -627 33 -16 41 -16 193 12 136 25 183 29 333 29 200 0 240 -9 352
-76 82 -50 110 -49 187 5 66 45 137 71 234 86 99 15 178 7 512 -51 128 -23
186 -10 206 45 l13 36 334 0 c266 0 338 3 360 14 15 8 146 136 291 285 l263
271 56 0 c118 0 197 76 197 190 -1 104 -69 180 -170 188 -70 6 -116 -11 -159
-58 -48 -53 -56 -108 -32 -210 6 -22 -24 -56 -257 -292 l-262 -268 -318 0
-317 0 0 70 0 70 248 1 c392 0 422 5 497 70 65 58 78 101 82 282 2 117 7 164
17 179 8 11 103 110 211 218 194 197 196 198 228 189 48 -14 76 -11 125 12 83
41 129 143 103 230 -15 49 -65 108 -108 125 -45 19 -121 17 -162 -4z m134
-127 c30 -30 31 -54 4 -89 -39 -49 -119 -22 -119 41 0 34 36 73 67 73 13 0 35
-11 48 -25z m-2830 -240 c100 -27 185 -75 256 -145 45 -45 69 -78 77 -106 8
-29 12 -157 12 -423 0 -209 -2 -381 -5 -381 -2 0 -40 24 -84 54 -112 76 -206
105 -373 113 l-128 6 0 455 0 455 93 -6 c50 -3 119 -13 152 -22z m1883 -35
c27 -26 28 -64 2 -90 -44 -44 -129 -8 -115 48 15 61 71 81 113 42z m-883 -81
l70 -24 3 -437 c2 -347 0 -438 -10 -438 -7 0 -47 7 -88 16 -148 32 -325 8
-446 -60 l-44 -25 0 420 0 420 47 50 c45 48 96 81 153 100 14 5 75 7 135 5 83
-2 127 -9 180 -27z m1834 -275 c28 -35 26 -59 -5 -90 -19 -20 -31 -24 -52 -20
-57 14 -80 78 -42 116 29 29 74 26 99 -6z"/>
<path d="M2044 3380 c-102 -21 -186 -88 -228 -179 -29 -66 -29 -200 1 -257 34
-64 103 -118 191 -150 42 -15 102 -36 132 -47 120 -44 155 -145 80 -231 -58
-66 -169 -71 -329 -16 -47 17 -87 30 -88 30 -2 0 -3 -42 -3 -94 l0 -94 38 -15
c119 -48 322 -49 416 -3 116 57 167 136 174 267 9 178 -49 256 -245 325 -136
49 -177 75 -197 123 -9 24 -13 53 -10 71 8 39 63 87 110 96 65 12 179 -2 240
-30 31 -14 58 -26 61 -26 2 0 2 44 1 97 l-3 97 -55 19 c-62 22 -220 31 -286
17z"/>
<path d="M6044 3360 c-148 -31 -254 -154 -254 -295 0 -155 79 -243 275 -305
138 -43 175 -78 175 -166 0 -39 -5 -51 -33 -79 -65 -65 -169 -70 -318 -15 -45
16 -84 29 -85 27 -2 -2 -6 -40 -10 -85 -4 -57 -2 -87 6 -97 25 -30 121 -49
245 -50 157 0 208 17 286 94 66 67 84 118 83 236 0 147 -65 225 -239 286 -155
55 -205 95 -205 164 0 119 175 159 347 80 l54 -24 -3 97 -3 97 -55 19 c-62 21
-204 30 -266 16z"/>
<path d="M7280 3362 l-35 -7 -3 -514 c-2 -379 1 -517 9 -528 9 -10 32 -13 88
-11 l76 3 3 519 c1 286 -1 523 -5 527 -12 11 -94 18 -133 11z"/>
<path d="M7600 3362 l-35 -7 -3 -514 c-2 -379 1 -517 9 -528 9 -10 32 -13 88
-11 l76 3 3 519 c1 286 -1 523 -5 527 -12 11 -94 18 -133 11z"/>
<path d="M5163 3280 c-22 -9 -23 -15 -23 -110 l0 -100 -47 0 c-70 0 -74 -6
-71 -86 l3 -69 57 -3 57 -3 3 -232 c3 -212 5 -236 24 -278 16 -35 34 -54 70
-75 45 -26 57 -29 145 -29 122 0 129 5 129 96 l0 68 -72 0 c-114 0 -112 -2
-116 246 l-3 204 93 3 93 3 0 75 0 75 -92 -3 -92 -4 -3 114 -3 113 -65 2 c-36
1 -75 -2 -87 -7z"/>
<path d="M2826 3075 c-22 -8 -52 -23 -67 -34 l-27 -20 -17 26 c-16 24 -21 25
-82 20 -36 -3 -69 -9 -74 -14 -5 -5 -8 -163 -7 -379 l3 -369 85 0 85 0 5 276
c5 259 6 278 25 299 45 50 137 67 183 34 49 -34 52 -55 52 -332 0 -187 3 -261
12 -270 7 -7 43 -12 89 -12 l78 0 3 268 c3 293 6 307 63 342 37 23 107 26 144
7 13 -6 34 -25 45 -40 20 -27 21 -44 26 -300 l5 -272 73 -3 c46 -2 79 2 88 9
11 9 14 56 14 243 0 336 -14 402 -98 478 -49 45 -120 63 -213 55 -70 -6 -110
-21 -167 -64 l-32 -24 -33 27 c-73 61 -173 80 -261 49z"/>
<path d="M3925 3075 c-118 -24 -115 -21 -115 -121 0 -78 2 -85 18 -79 132 56
229 69 297 41 35 -15 75 -76 75 -114 0 -22 -35 -29 -163 -31 -142 -3 -227 -45
-271 -132 -56 -113 -22 -252 77 -313 86 -53 249 -46 327 13 l24 19 13 -29 c12
-30 13 -30 85 -27 l73 3 0 285 c0 219 -3 294 -14 325 -42 118 -113 164 -263
170 -58 3 -120 -1 -163 -10z m273 -488 c-6 -76 -21 -102 -70 -128 -112 -58
-230 -10 -215 88 12 70 74 101 206 102 l84 1 -5 -63z"/>
<path d="M4762 3069 c-23 -12 -51 -32 -61 -45 -25 -31 -29 -30 -33 9 -3 30 -5
32 -48 35 -24 2 -59 1 -77 -3 l-33 -6 2 -377 3 -377 80 0 80 0 5 262 c5 245 6
263 26 290 32 44 70 58 146 56 l67 -2 6 32 c4 18 5 57 3 87 l-3 55 -60 3 c-45
2 -70 -3 -103 -19z"/>
<path d="M6684 3080 c-28 -5 -68 -15 -90 -22 l-39 -13 -3 -89 c-3 -82 -1 -88
15 -81 90 39 134 49 215 50 85 0 89 -1 118 -31 24 -23 31 -40 33 -75 l2 -44
-110 -3 c-127 -3 -195 -19 -252 -61 -103 -75 -119 -246 -32 -345 52 -59 118
-81 225 -74 58 4 81 11 123 37 55 33 51 34 67 -17 3 -9 24 -12 76 -10 l73 3 0
295 0 295 -27 55 c-45 92 -115 129 -258 135 -47 2 -108 0 -136 -5z m256 -487
c0 -69 -23 -114 -72 -139 -63 -32 -185 -14 -202 31 -3 9 -6 32 -6 50 0 72 76
113 213 114 l67 1 0 -57z"/>
<path d="M8093 3076 c-147 -48 -233 -165 -249 -335 -25 -268 138 -451 401
-451 80 0 173 20 210 44 23 15 25 22 25 90 l0 74 -82 -29 c-46 -16 -100 -29
-120 -29 -58 0 -134 19 -170 44 -39 26 -78 90 -78 128 l0 28 243 2 242 3 -2
90 c-3 152 -59 263 -162 319 -43 23 -68 29 -134 32 -53 3 -97 -1 -124 -10z
m182 -155 c35 -20 61 -62 70 -113 l7 -38 -161 0 c-155 0 -161 1 -161 20 0 28
33 90 63 118 47 44 119 49 182 13z"/>
</g>
</svg>
